<svg width="25" height="20" viewBox="0 0 25 20" fill="none" xmlns="http://www.w3.org/2000/svg">
<path d="M2.45763 11.5139H22.4742C23.2992 11.5139 23.968 10.8451 23.968 10.0201C23.968 9.19513 23.2992 8.52637 22.4742 8.52637H2.45763C1.63263 8.52637 0.963867 9.19513 0.963867 10.0201C0.96382 10.8451 1.63263 11.5139 2.45763 11.5139Z" fill="#666666"/>
<path d="M13.9596 5.30432C13.5236 5.30432 13.1689 5.65898 13.1689 6.09496V7.11998H19.288V6.09496C19.288 5.65898 18.9333 5.30432 18.4973 5.30432H13.9596Z" fill="#666666"/>
<path d="M4.23733 6.09508C4.23733 4.88369 5.22283 3.89819 6.43422 3.89819H10.972C11.5484 3.89819 12.0734 4.12169 12.4657 4.48619C12.858 4.12169 13.383 3.89819 13.9595 3.89819H18.4972C19.7086 3.89819 20.6941 4.88369 20.6941 6.09508V7.12009H22.9764V2.27697C22.9764 1.45197 22.3076 0.783203 21.4826 0.783203H3.44884C2.62384 0.783203 1.95508 1.45197 1.95508 2.27697V7.12009H4.23733V6.09508Z" fill="#666666"/>
<path d="M6.4342 5.30432C5.99821 5.30432 5.64355 5.65898 5.64355 6.09496V7.11998H11.7626V6.09496C11.7626 5.65898 11.4079 5.30432 10.9719 5.30432H6.4342Z" fill="#666666"/>
<path d="M0.46582 12.92V19.3896H1.87207V16.8257H23.0596V19.3896H24.4658V12.92H0.46582Z" fill="#666666"/>
</svg>
