<svg width="25" height="19" viewBox="0 0 25 19" fill="none" xmlns="http://www.w3.org/2000/svg">
<path d="M20.0874 7.31049C20.3683 7.31049 20.596 7.0828 20.596 6.8019V5.17045C20.596 4.88955 20.3683 4.66187 20.0874 4.66187L19.3636 4.66627L16.9883 7.31049H20.0874Z" fill="#666666"/>
<path d="M4.84257 7.31029H7.96608L5.54964 4.66174H4.84257C4.56167 4.66174 4.33398 4.88943 4.33398 5.17033V6.80165C4.33398 7.0826 4.56167 7.31029 4.84257 7.31029Z" fill="#666666"/>
<path d="M12.7564 9.93307L17.4696 4.66187H7.45996L12.2506 9.93509C12.3864 10.0846 12.6217 10.0836 12.7564 9.93307Z" fill="#666666"/>
<path d="M14.0829 17.3511H13.2073V11.4324C12.9973 11.5537 12.7573 11.6199 12.5097 11.6209C12.5079 11.6209 12.506 11.6209 12.5042 11.6209C12.2548 11.6209 12.0127 11.5546 11.801 11.4324V17.3511H10.8458C10.4574 17.3511 10.1426 17.6659 10.1426 18.0542C10.1426 18.4426 10.4574 18.7574 10.8458 18.7574H14.083C14.4713 18.7574 14.7861 18.4426 14.7861 18.0542C14.7861 17.6659 14.4713 17.3511 14.0829 17.3511Z" fill="#666666"/>
<path d="M6.39551 9.26674H1.87217V0.931569C1.87217 0.543229 1.55734 0.228394 1.169 0.228394C0.780656 0.228394 0.46582 0.543229 0.46582 0.931569V18.1105C0.46582 18.4988 0.780656 18.8137 1.169 18.8137C1.55734 18.8137 1.87217 18.4988 1.87217 18.1105V12.8581H6.98487V18.1105C6.98487 18.4988 7.2997 18.8137 7.68805 18.8137C8.07639 18.8137 8.39122 18.4988 8.39122 18.1105V11.2624C8.39122 10.162 7.49594 9.26674 6.39551 9.26674Z" fill="#666666"/>
<path d="M23.762 0.228394C23.3736 0.228394 23.0588 0.543229 23.0588 0.931569V9.26674H18.6402C17.5398 9.26674 16.6445 10.162 16.6445 11.2624V18.1105C16.6445 18.4988 16.9594 18.8137 17.3477 18.8137C17.736 18.8137 18.0509 18.4988 18.0509 18.1105V12.857H23.0588V18.1105C23.0588 18.4988 23.3737 18.8137 23.762 18.8137C24.1503 18.8137 24.4652 18.4988 24.4652 18.1105V0.931569C24.4651 0.543229 24.1503 0.228394 23.762 0.228394Z" fill="#666666"/>
</svg>
