<svg width="13" height="10" viewBox="0 0 13 10" fill="none" xmlns="http://www.w3.org/2000/svg">
<path d="M12.1262 1.11185C11.6976 1.30188 11.2367 1.4304 10.7532 1.4878C11.2468 1.19207 11.6256 0.724141 11.8044 0.165659C11.3425 0.439642 10.8308 0.6384 10.2865 0.745533C9.85052 0.281171 9.2293 -0.0090332 8.5414 -0.0090332C7.22158 -0.0090332 6.15114 1.06141 6.15114 2.38123C6.15114 2.56858 6.17235 2.75093 6.21335 2.92598C4.22684 2.82634 2.46548 1.8748 1.28648 0.428233C1.08077 0.781184 0.962765 1.19207 0.962765 1.63005C0.962765 2.45913 1.38506 3.19105 2.02607 3.61958C1.63444 3.60728 1.26562 3.49979 0.943513 3.32029C0.943335 3.33045 0.943334 3.34061 0.943334 3.35059C0.943334 4.50873 1.7676 5.47471 2.86085 5.69415C2.66049 5.74905 2.4489 5.77811 2.23125 5.77811C2.07688 5.77811 1.92732 5.76331 1.7815 5.7355C2.08561 6.68491 2.96817 7.37601 4.01436 7.39544C3.19616 8.03664 2.16565 8.41864 1.04548 8.41864C0.852958 8.41864 0.662222 8.40741 0.475586 8.38513C1.53283 9.06358 2.78955 9.45913 4.13932 9.45913C8.53587 9.45913 10.9402 5.81697 10.9402 2.65806C10.9402 2.55449 10.9379 2.45128 10.9333 2.34896C11.4007 2.01205 11.8058 1.59119 12.1262 1.11185Z" fill="#305F64"/>
</svg>
